<svg width="20" height="20" viewBox="0 0 20 20" fill="none" xmlns="http://www.w3.org/2000/svg">
<path d="M18.8821 18.3148L12.8051 12.2382C13.8658 11.0437 14.5162 9.47778 14.5162 7.75839C14.5162 4.03158 11.4847 1 7.75823 1C4.0315 1 1 4.03158 1 7.75839C1 11.4849 4.0315 14.5165 7.75823 14.5165C9.47729 14.5165 11.0435 13.8661 12.2379 12.8054L18.3143 18.8826C18.3924 18.9606 18.4955 19 18.5981 19C18.701 19 18.8041 18.9606 18.8821 18.8826C19.0393 18.7251 19.0393 18.4716 18.8821 18.3148ZM7.75823 13.7135C4.47441 13.7135 1.80295 11.0423 1.80295 7.75839C1.80295 4.4745 4.47441 1.80297 7.75823 1.80297C11.0418 1.80297 13.7132 4.4745 13.7132 7.75839C13.7132 9.25604 13.1537 10.6225 12.2379 11.6701C12.061 11.8718 11.8719 12.061 11.6701 12.2379C10.6226 13.154 9.25584 13.7135 7.75823 13.7135Z" fill="#717171" stroke="#717171"/>
</svg>
