<svg width="181" height="38" viewBox="0 0 181 38" fill="none" xmlns="http://www.w3.org/2000/svg">
<path d="M18.7102 9.80817C18.5831 8.52584 18.0373 7.52966 17.0729 6.81962C16.1085 6.10957 14.7997 5.75455 13.1464 5.75455C12.0231 5.75455 11.0746 5.91351 10.301 6.23144C9.52733 6.53878 8.93386 6.96798 8.52055 7.51906C8.11783 8.07014 7.91648 8.69541 7.91648 9.39486C7.89528 9.97773 8.01716 10.4864 8.2821 10.9209C8.55764 11.3554 8.93386 11.7316 9.41075 12.0496C9.88765 12.3569 10.4387 12.6272 11.064 12.8603C11.6893 13.0829 12.3569 13.2736 13.067 13.4326L15.9919 14.132C17.412 14.45 18.7155 14.8739 19.9025 15.4037C21.0894 15.9336 22.1174 16.5854 22.9864 17.359C23.8554 18.1327 24.5284 19.0441 25.0053 20.0932C25.4928 21.1424 25.7418 22.3452 25.7524 23.7017C25.7418 25.6941 25.2331 27.4215 24.2263 28.884C23.2301 30.3359 21.7889 31.4646 19.9025 32.27C18.0267 33.0648 15.7641 33.4622 13.1146 33.4622C10.4864 33.4622 8.19732 33.0595 6.24734 32.2541C4.30796 31.4487 2.79249 30.2564 1.70093 28.6774C0.619965 27.0877 0.0529885 25.1218 0 22.7797H6.66065C6.73484 23.8713 7.04747 24.7827 7.59855 25.5139C8.16022 26.2346 8.90736 26.7804 9.83996 27.1513C10.7832 27.5116 11.8482 27.6918 13.0352 27.6918C14.2009 27.6918 15.213 27.5222 16.0714 27.1831C16.9404 26.844 17.6134 26.3724 18.0903 25.7683C18.5672 25.1642 18.8056 24.4701 18.8056 23.6858C18.8056 22.9546 18.5884 22.3399 18.1539 21.8418C17.7299 21.3438 17.1047 20.9198 16.2781 20.5701C15.462 20.2204 14.4606 19.9025 13.2736 19.6163L9.72868 18.7261C6.98388 18.0585 4.81665 17.0146 3.227 15.5945C1.63734 14.1744 0.847816 12.2615 0.858413 9.85585C0.847816 7.88468 1.3724 6.16256 2.43217 4.68948C3.50254 3.2164 4.97032 2.06655 6.83551 1.23993C8.70071 0.41331 10.8202 0 13.1941 0C15.6104 0 17.7193 0.41331 19.521 1.23993C21.3332 2.06655 22.7427 3.2164 23.7494 4.68948C24.7562 6.16256 25.2755 7.86879 25.3073 9.80817H18.7102Z" fill="url(#paint0_linear_5_113)"/>
<path d="M39.7205 33.4781C37.2513 33.4781 35.1158 32.9535 33.3142 31.9044C31.5232 30.8446 30.1402 29.3715 29.1652 27.4851C28.1902 25.5881 27.7027 23.3891 27.7027 20.8881C27.7027 18.3658 28.1902 16.1615 29.1652 14.2751C30.1402 12.3781 31.5232 10.905 33.3142 9.85585C35.1158 8.79609 37.2513 8.2662 39.7205 8.2662C42.1898 8.2662 44.3199 8.79609 46.1109 9.85585C47.9125 10.905 49.3008 12.3781 50.2758 14.2751C51.2508 16.1615 51.7383 18.3658 51.7383 20.8881C51.7383 23.3891 51.2508 25.5881 50.2758 27.4851C49.3008 29.3715 47.9125 30.8446 46.1109 31.9044C44.3199 32.9535 42.1898 33.4781 39.7205 33.4781ZM39.7523 28.2323C40.8757 28.2323 41.8136 27.9143 42.566 27.2785C43.3184 26.632 43.8854 25.7524 44.2669 24.6396C44.6591 23.5269 44.8551 22.2605 44.8551 20.8404C44.8551 19.4203 44.6591 18.1538 44.2669 17.0411C43.8854 15.9283 43.3184 15.0487 42.566 14.4023C41.8136 13.7558 40.8757 13.4326 39.7523 13.4326C38.6184 13.4326 37.6646 13.7558 36.8909 14.4023C36.1279 15.0487 35.5503 15.9283 35.1582 17.0411C34.7767 18.1538 34.5859 19.4203 34.5859 20.8404C34.5859 22.2605 34.7767 23.5269 35.1582 24.6396C35.5503 25.7524 36.1279 26.632 36.8909 27.2785C37.6646 27.9143 38.6184 28.2323 39.7523 28.2323Z" fill="url(#paint1_linear_5_113)"/>
<path d="M70.233 22.6049V8.58413H77.0049V33.0012H70.5032V28.5661H70.2489C69.6978 29.9968 68.7811 31.1466 67.4988 32.0156C66.2271 32.8846 64.6745 33.3191 62.8411 33.3191C61.209 33.3191 59.7731 32.9482 58.5331 32.2064C57.2932 31.4646 56.3235 30.4101 55.6241 29.043C54.9352 27.6759 54.5855 26.0385 54.5749 24.1309V8.58413H61.3468V22.9228C61.3574 24.3641 61.7442 25.5033 62.5073 26.3406C63.2703 27.1778 64.293 27.5964 65.5753 27.5964C66.3913 27.5964 67.1544 27.4109 67.8644 27.04C68.5744 26.6585 69.1467 26.0968 69.5812 25.355C70.0263 24.6131 70.2436 23.6964 70.233 22.6049Z" fill="url(#paint2_linear_5_113)"/>
<path d="M87.6268 18.8851V33.0012H80.8549V8.58413H87.3089V12.8921H87.595C88.1355 11.472 89.0416 10.3486 90.3133 9.52203C91.5851 8.68481 93.127 8.2662 94.9392 8.2662C96.6349 8.2662 98.1132 8.63712 99.3744 9.37896C100.635 10.1208 101.616 11.1806 102.315 12.5583C103.015 13.9254 103.364 15.5574 103.364 17.4544V33.0012H96.5925V18.6625C96.6031 17.1683 96.2216 16.0025 95.4479 15.1653C94.6743 14.3175 93.6092 13.8936 92.2527 13.8936C91.3413 13.8936 90.5359 14.0896 89.8364 14.4817C89.1476 14.8739 88.6071 15.4461 88.215 16.1986C87.8335 16.9404 87.6374 17.8359 87.6268 18.8851Z" fill="url(#paint3_linear_5_113)"/>
<path d="M116.132 33.3986C114.278 33.3986 112.598 32.9217 111.093 31.9679C109.599 31.0036 108.412 29.5888 107.532 27.7236C106.663 25.8478 106.229 23.5481 106.229 20.8245C106.229 18.0267 106.679 15.7005 107.58 13.8459C108.481 11.9807 109.678 10.5871 111.173 9.6651C112.677 8.7325 114.325 8.2662 116.116 8.2662C117.484 8.2662 118.623 8.49935 119.534 8.96565C120.456 9.42135 121.198 9.99363 121.76 10.6825C122.332 11.3607 122.766 12.0284 123.063 12.6854H123.27V0.445103H130.026V33.0012H123.349V29.0907H123.063C122.745 29.7689 122.295 30.4419 121.712 31.1095C121.14 31.7666 120.393 32.3124 119.471 32.7469C118.559 33.1814 117.446 33.3986 116.132 33.3986ZM118.278 28.0097C119.37 28.0097 120.292 27.713 121.044 27.1195C121.807 26.5154 122.39 25.6729 122.793 24.5919C123.206 23.511 123.413 22.2446 123.413 20.7927C123.413 19.3408 123.212 18.0797 122.809 17.0093C122.406 15.9389 121.823 15.1123 121.06 14.5294C120.297 13.9466 119.37 13.6551 118.278 13.6551C117.166 13.6551 116.228 13.9572 115.465 14.5612C114.702 15.1653 114.124 16.0025 113.732 17.0729C113.34 18.1433 113.144 19.3832 113.144 20.7927C113.144 22.2128 113.34 23.4686 113.732 24.5602C114.135 25.6411 114.712 26.4889 115.465 27.1036C116.228 27.7077 117.166 28.0097 118.278 28.0097Z" fill="url(#paint4_linear_5_113)"/>
<path d="M144.213 20.7927C144.123 19.8866 143.723 19.1659 143.013 18.6308C142.303 18.0956 141.41 17.828 140.335 17.828C139.577 17.828 138.909 17.9578 138.332 18.2175C137.759 18.4771 137.309 18.8374 136.98 19.2984C136.657 19.7541 136.496 20.2734 136.496 20.8563C136.496 21.2855 136.588 21.6617 136.774 21.9849C136.959 22.3082 137.208 22.5863 137.521 22.8195C137.839 23.0473 138.189 23.2434 138.57 23.4077C138.957 23.5719 139.346 23.7097 139.739 23.821L141.455 24.3138C141.975 24.4568 142.494 24.6397 143.013 24.8622C143.533 25.0848 144.007 25.3656 144.436 25.7047C144.87 26.0385 145.218 26.4492 145.477 26.9367C145.742 27.4189 145.875 27.9991 145.875 28.6774C145.875 29.5464 145.649 30.328 145.199 31.0221C144.749 31.7163 144.102 32.2673 143.26 32.6754C142.417 33.0781 141.408 33.2794 140.231 33.2794C139.124 33.2794 138.162 33.0966 137.346 32.731C136.53 32.3601 135.889 31.8487 135.423 31.197C134.956 30.5452 134.694 29.7901 134.636 28.9317H136.162C136.215 29.5729 136.427 30.116 136.798 30.5611C137.169 31.0062 137.651 31.3453 138.244 31.5785C138.838 31.8063 139.5 31.9203 140.231 31.9203C141.042 31.9203 141.763 31.7851 142.393 31.5149C143.029 31.2394 143.527 30.8579 143.888 30.3704C144.253 29.8776 144.436 29.3053 144.436 28.6535C144.436 28.1024 144.293 27.6415 144.007 27.2705C143.721 26.8943 143.321 26.579 142.807 26.3247C142.298 26.0703 141.707 25.8451 141.034 25.6491L139.087 25.0768C137.81 24.6953 136.819 24.1681 136.114 23.4951C135.409 22.8221 135.057 21.9637 135.057 20.9199C135.057 20.0456 135.29 19.2772 135.756 18.6149C136.228 17.9472 136.864 17.4279 137.664 17.057C138.469 16.6808 139.373 16.4927 140.374 16.4927C141.386 16.4927 142.282 16.6781 143.061 17.0491C143.84 17.42 144.457 17.9313 144.913 18.5831C145.374 19.2295 145.62 19.9661 145.652 20.7927H144.213Z" fill="#00E492"/>
<path d="M149.157 37.5794V20.7927H150.532V23.1215H150.699C150.869 22.7559 151.102 22.3823 151.399 22.0008C151.695 21.614 152.087 21.2881 152.575 21.0232C153.068 20.7582 153.688 20.6258 154.435 20.6258C155.442 20.6258 156.321 20.8907 157.074 21.4206C157.831 21.9452 158.42 22.6817 158.838 23.6302C159.262 24.5734 159.474 25.6729 159.474 26.9288C159.474 28.1899 159.262 29.2947 158.838 30.2432C158.42 31.1917 157.831 31.9309 157.074 32.4608C156.321 32.9906 155.447 33.2556 154.451 33.2556C153.714 33.2556 153.097 33.1231 152.599 32.8582C152.106 32.5932 151.706 32.2673 151.399 31.8805C151.097 31.4884 150.863 31.1069 150.699 30.736H150.572V37.5794H149.157ZM150.556 26.9049C150.556 27.8905 150.702 28.7648 150.993 29.5278C151.29 30.2856 151.714 30.8817 152.265 31.3162C152.821 31.7454 153.494 31.96 154.284 31.96C155.095 31.96 155.778 31.7375 156.335 31.2924C156.896 30.842 157.323 30.2352 157.614 29.4722C157.911 28.7092 158.059 27.8534 158.059 26.9049C158.059 25.967 157.914 25.1218 157.622 24.3694C157.336 23.617 156.912 23.0209 156.35 22.5811C155.789 22.1359 155.1 21.9134 154.284 21.9134C153.489 21.9134 152.813 22.128 152.257 22.5572C151.701 22.9811 151.277 23.5693 150.985 24.3217C150.699 25.0689 150.556 25.9299 150.556 26.9049Z" fill="#00E492"/>
<path d="M167.323 33.2556C166.269 33.2556 165.336 32.988 164.525 32.4528C163.72 31.9176 163.089 31.1784 162.634 30.2352C162.178 29.2867 161.95 28.1925 161.95 26.9526C161.95 25.7021 162.178 24.6026 162.634 23.6541C163.089 22.7003 163.72 21.9584 164.525 21.4286C165.336 20.8934 166.269 20.6258 167.323 20.6258C168.377 20.6258 169.307 20.8934 170.113 21.4286C170.918 21.9637 171.549 22.7056 172.005 23.6541C172.466 24.6026 172.696 25.7021 172.696 26.9526C172.696 28.1925 172.468 29.2867 172.012 30.2352C171.557 31.1784 170.924 31.9176 170.113 32.4528C169.307 32.988 168.377 33.2556 167.323 33.2556ZM167.323 31.96C168.171 31.96 168.889 31.7322 169.477 31.2765C170.065 30.8208 170.51 30.214 170.812 29.4563C171.12 28.6986 171.273 27.864 171.273 26.9526C171.273 26.0412 171.12 25.204 170.812 24.4409C170.51 23.6779 170.065 23.0659 169.477 22.6049C168.889 22.1439 168.171 21.9134 167.323 21.9134C166.48 21.9134 165.762 22.1439 165.169 22.6049C164.581 23.0659 164.133 23.6779 163.826 24.4409C163.524 25.204 163.373 26.0412 163.373 26.9526C163.373 27.864 163.524 28.6986 163.826 29.4563C164.133 30.214 164.581 30.8208 165.169 31.2765C165.757 31.7322 166.475 31.96 167.323 31.96Z" fill="#00E492"/>
<path d="M180.611 20.7927V22.0247H174.784V20.7927H180.611ZM176.605 17.8677H178.027V29.814C178.027 30.3227 178.115 30.7227 178.29 31.0142C178.464 31.3003 178.692 31.5043 178.973 31.6262C179.254 31.7428 179.553 31.801 179.871 31.801C180.057 31.801 180.216 31.7904 180.348 31.7693C180.481 31.7428 180.597 31.7163 180.698 31.6898L181 32.9694C180.862 33.0224 180.693 33.0701 180.491 33.1125C180.29 33.1602 180.041 33.184 179.744 33.184C179.225 33.184 178.724 33.0701 178.242 32.8423C177.765 32.6144 177.373 32.2753 177.066 31.8249C176.758 31.3745 176.605 30.8155 176.605 30.1478V17.8677Z" fill="#00E492"/>
<path fill-rule="evenodd" clip-rule="evenodd" d="M156.463 12.1317C154.195 12.5305 152.329 13.9039 151.31 15.0481C151.182 15.1924 150.961 15.2053 150.816 15.0768C150.672 14.9484 150.659 14.7274 150.788 14.5831C151.883 13.3522 153.883 11.8753 156.342 11.4428C158.826 11.0059 161.734 11.6437 164.589 14.5715C164.724 14.7098 164.721 14.9312 164.583 15.066C164.444 15.2009 164.223 15.198 164.088 15.0597C161.385 12.2871 158.706 11.7373 156.463 12.1317Z" fill="#00E492"/>
<path fill-rule="evenodd" clip-rule="evenodd" d="M155.951 8.8593C152.738 9.43363 150.091 11.4124 148.646 13.0628C148.455 13.2808 148.123 13.3027 147.906 13.1119C147.688 12.921 147.666 12.5896 147.856 12.3716C149.416 10.5912 152.262 8.45297 155.766 7.8265C159.31 7.19305 163.453 8.11968 167.515 12.3541C167.715 12.5632 167.708 12.8953 167.499 13.0958C167.29 13.2964 166.958 13.2894 166.758 13.0803C162.922 9.08075 159.125 8.29197 155.951 8.8593Z" fill="#00E492"/>
<path fill-rule="evenodd" clip-rule="evenodd" d="M155.425 5.56294C151.246 6.22787 147.816 8.51569 145.952 10.41C145.681 10.6854 145.238 10.689 144.963 10.4181C144.687 10.1471 144.684 9.70429 144.955 9.42892C146.986 7.36457 150.677 4.90202 155.205 4.18142C159.772 3.45468 165.135 4.51112 170.41 9.40677C170.693 9.66955 170.709 10.1121 170.447 10.3953C170.184 10.6784 169.741 10.6949 169.458 10.4321C164.496 5.82704 159.565 4.90415 155.425 5.56294Z" fill="#00E492"/>
<defs>
<linearGradient id="paint0_linear_5_113" x1="65.7163" y1="-10.3645" x2="65.7163" y2="43.8427" gradientUnits="userSpaceOnUse">
<stop offset="0.239261" stop-color="#00E492"/>
<stop offset="1" stop-color="#00E492"/>
</linearGradient>
<linearGradient id="paint1_linear_5_113" x1="65.7163" y1="-10.3645" x2="65.7163" y2="43.8427" gradientUnits="userSpaceOnUse">
<stop offset="0.239261" stop-color="#00E492"/>
<stop offset="1" stop-color="#00E492"/>
</linearGradient>
<linearGradient id="paint2_linear_5_113" x1="65.7163" y1="-10.3645" x2="65.7163" y2="43.8427" gradientUnits="userSpaceOnUse">
<stop offset="0.239261" stop-color="#00E492"/>
<stop offset="1" stop-color="#00E492"/>
</linearGradient>
<linearGradient id="paint3_linear_5_113" x1="65.7163" y1="-10.3645" x2="65.7163" y2="43.8427" gradientUnits="userSpaceOnUse">
<stop offset="0.239261" stop-color="#00E492"/>
<stop offset="1" stop-color="#00E492"/>
</linearGradient>
<linearGradient id="paint4_linear_5_113" x1="65.7163" y1="-10.3645" x2="65.7163" y2="43.8427" gradientUnits="userSpaceOnUse">
<stop offset="0.239261" stop-color="#00E492"/>
<stop offset="1" stop-color="#00E492"/>
</linearGradient>
</defs>
</svg>
